<svg xmlns="http://www.w3.org/2000/svg" version="1.1" xmlns:xlink="http://www.w3.org/1999/xlink" xmlns:svgjs="http://svgjs.dev/svgjs" viewBox="0 0 4.970619916037881 4.4029342847338455"><g transform="matrix(1,0,0,1,1.4897044892689406,1.8318382361169228)"><g transform="matrix(1,0,0,1,0,0)"><g clip-path="url(#SvgjsClipPath1003)"><path d=" M -1.1 0.36962890625 L -0.05397883223387967 -1.4421337468479827 L 2.0381057777602667 -1.4421337468479827 L 3.084060514229107 0.36962890625 L 2.0381057777602667 2.1813915593479827 L -0.05397883223387967 2.1813915593479827 L -1.1 0.36962890625 Z" fill="#4e888f" transform="matrix(1,0,0,1,0,0)" fill-rule="nonzero"></path></g></g><g transform="matrix(1,0,0,1,0,0)"><path d=" M 0.955078125 0.73681640625 Q 0.95703125 0.740234375 0.95703125 0.7451171875 Q 0.95703125 0.75244140625 0.951904296875 0.7578125 Q 0.94677734375 0.76318359375 0.9384765625 0.76318359375 Q 0.93310546875 0.76318359375 0.928955078125 0.7607421875 Q 0.9248046875 0.75830078125 0.92236328125 0.75341796875 Q 0.9130859375 0.7353515625 0.906005859375 0.708251953125 Q 0.89892578125 0.68115234375 0.893798828125 0.64794921875 Q 0.888671875 0.61474609375 0.885498046875 0.576416015625 Q 0.88232421875 0.5380859375 0.88037109375 0.4970703125 Q 0.84375 0.501953125 0.798095703125 0.5078125 Q 0.75244140625 0.513671875 0.69384765625 0.521484375 Q 0.65283203125 0.52734375 0.6103515625 0.53173828125 Q 0.505859375 0.6455078125 0.390380859375 0.704345703125 Q 0.27490234375 0.76318359375 0.15869140625 0.76318359375 Q 0.10693359375 0.76318359375 0.069091796875 0.753173828125 Q 0.03125 0.7431640625 0.006591796875 0.730712890625 Q -0.01806640625 0.71826171875 -0.030517578125 0.70751953125 Q -0.04296875 0.69677734375 -0.0439453125 0.69580078125 Q -0.048828125 0.69091796875 -0.048828125 0.68310546875 Q -0.048828125 0.67529296875 -0.04345703125 0.669921875 Q -0.0380859375 0.66455078125 -0.03076171875 0.66455078125 Q -0.0224609375 0.66455078125 -0.01708984375 0.67041015625 Q -0.01611328125 0.67138671875 -0.00537109375 0.680419921875 Q 0.00537109375 0.689453125 0.026611328125 0.69970703125 Q 0.0478515625 0.7099609375 0.08056640625 0.71826171875 Q 0.11328125 0.7265625 0.158203125 0.7265625 Q 0.2197265625 0.7265625 0.27587890625 0.7099609375 Q 0.33203125 0.693359375 0.382080078125 0.666748046875 Q 0.43212890625 0.64013671875 0.475341796875 0.60595703125 Q 0.5185546875 0.57177734375 0.5537109375 0.53662109375 Q 0.51904296875 0.53955078125 0.48486328125 0.541015625 Q 0.45068359375 0.54248046875 0.41748046875 0.54248046875 Q 0.35205078125 0.54248046875 0.29296875 0.53515625 Q 0.23388671875 0.52783203125 0.18896484375 0.510498046875 Q 0.14404296875 0.4931640625 0.117431640625 0.46435546875 Q 0.0908203125 0.435546875 0.0908203125 0.392578125 Q 0.0908203125 0.373046875 0.098876953125 0.353515625 Q 0.10693359375 0.333984375 0.1181640625 0.318115234375 Q 0.12939453125 0.30224609375 0.1416015625 0.292236328125 Q 0.15380859375 0.2822265625 0.16259765625 0.2822265625 Q 0.16943359375 0.2822265625 0.17529296875 0.287109375 Q 0.18115234375 0.2919921875 0.18115234375 0.30029296875 Q 0.18115234375 0.3046875 0.17919921875 0.308837890625 Q 0.17724609375 0.31298828125 0.17333984375 0.3154296875 Q 0.17236328125 0.31640625 0.1650390625 0.322265625 Q 0.15771484375 0.328125 0.1494140625 0.338134765625 Q 0.14111328125 0.34814453125 0.13427734375 0.362060546875 Q 0.12744140625 0.3759765625 0.12744140625 0.39208984375 Q 0.12744140625 0.419921875 0.146728515625 0.441162109375 Q 0.166015625 0.46240234375 0.202880859375 0.476806640625 Q 0.23974609375 0.4912109375 0.29345703125 0.49853515625 Q 0.34716796875 0.505859375 0.416015625 0.505859375 Q 0.45556640625 0.505859375 0.49951171875 0.50341796875 Q 0.54345703125 0.5009765625 0.59228515625 0.49609375 Q 0.61572265625 0.47021484375 0.6337890625 0.447265625 Q 0.65185546875 0.42431640625 0.66455078125 0.40625 Q 0.685546875 0.37646484375 0.70849609375 0.3427734375 Q 0.7314453125 0.30908203125 0.754150390625 0.2744140625 Q 0.77685546875 0.23974609375 0.798583984375 0.205810546875 Q 0.8203125 0.171875 0.83935546875 0.141845703125 Q 0.8583984375 0.11181640625 0.87353515625 0.087158203125 Q 0.888671875 0.0625 0.8984375 0.04638671875 Q 0.9013671875 0.033203125 0.9072265625 0.022216796875 Q 0.9130859375 0.01123046875 0.92626953125 0.01123046875 Q 0.93359375 0.01123046875 0.9404296875 0.017333984375 Q 0.947265625 0.0234375 0.947265625 0.03271484375 Q 0.947265625 0.03955078125 0.9423828125 0.04736328125 Q 0.9375 0.05517578125 0.93310546875 0.060546875 Q 0.931640625 0.06982421875 0.928466796875 0.10009765625 Q 0.92529296875 0.13037109375 0.922119140625 0.174072265625 Q 0.9189453125 0.2177734375 0.916748046875 0.270263671875 Q 0.91455078125 0.32275390625 0.91455078125 0.37646484375 Q 0.91455078125 0.396484375 0.91455078125 0.416015625 Q 0.91455078125 0.435546875 0.91552734375 0.45556640625 Q 0.98876953125 0.4462890625 1.0224609375 0.442626953125 Q 1.05615234375 0.43896484375 1.05810546875 0.43896484375 Q 1.064453125 0.43896484375 1.070556640625 0.444091796875 Q 1.07666015625 0.44921875 1.07666015625 0.45751953125 Q 1.07666015625 0.46435546875 1.072021484375 0.469482421875 Q 1.0673828125 0.474609375 1.06005859375 0.4755859375 Q 1.05126953125 0.4765625 1.03955078125 0.47802734375 Q 1.02783203125 0.4794921875 1.0107421875 0.4814453125 Q 0.99365234375 0.4833984375 0.970703125 0.486083984375 Q 0.94775390625 0.48876953125 0.9169921875 0.49267578125 Q 0.91845703125 0.53271484375 0.921630859375 0.569580078125 Q 0.9248046875 0.6064453125 0.929443359375 0.63818359375 Q 0.93408203125 0.669921875 0.9404296875 0.6953125 Q 0.94677734375 0.720703125 0.955078125 0.73681640625 M 0.68896484375 0.48486328125 Q 0.74658203125 0.47705078125 0.793701171875 0.470947265625 Q 0.8408203125 0.46484375 0.87890625 0.4599609375 Q 0.87841796875 0.43896484375 0.878173828125 0.41796875 Q 0.8779296875 0.39697265625 0.8779296875 0.37548828125 Q 0.8779296875 0.306640625 0.88037109375 0.243896484375 Q 0.8828125 0.18115234375 0.88720703125 0.134765625 Q 0.86767578125 0.16552734375 0.843994140625 0.202880859375 Q 0.8203125 0.240234375 0.794921875 0.279052734375 Q 0.76953125 0.31787109375 0.74365234375 0.35595703125 Q 0.7177734375 0.39404296875 0.6943359375 0.42724609375 Q 0.6826171875 0.44384765625 0.67041015625 0.45947265625 Q 0.658203125 0.47509765625 0.64599609375 0.490234375 Q 0.65673828125 0.4892578125 0.667236328125 0.48779296875 Q 0.677734375 0.486328125 0.68896484375 0.48486328125 M 1.9765625 0.25732421875 Q 1.9765625 0.31640625 1.9541015625 0.363037109375 Q 1.931640625 0.40966796875 1.890625 0.442138671875 Q 1.849609375 0.474609375 1.79248046875 0.491943359375 Q 1.7353515625 0.50927734375 1.66650390625 0.50927734375 Q 1.658203125 0.50927734375 1.652099609375 0.504638671875 Q 1.64599609375 0.5 1.64599609375 0.49072265625 Q 1.64599609375 0.4833984375 1.6513671875 0.47802734375 Q 1.65673828125 0.47265625 1.66455078125 0.47265625 Q 1.72607421875 0.47265625 1.77685546875 0.45849609375 Q 1.82763671875 0.4443359375 1.86376953125 0.416748046875 Q 1.89990234375 0.38916015625 1.919921875 0.34912109375 Q 1.93994140625 0.30908203125 1.93994140625 0.25732421875 Q 1.93994140625 0.20458984375 1.916748046875 0.16357421875 Q 1.8935546875 0.12255859375 1.851806640625 0.09423828125 Q 1.81005859375 0.06591796875 1.752197265625 0.05126953125 Q 1.6943359375 0.03662109375 1.625 0.03662109375 Q 1.5595703125 0.03662109375 1.498291015625 0.04736328125 Q 1.43701171875 0.05810546875 1.38330078125 0.07763671875 Q 1.32958984375 0.09716796875 1.285400390625 0.12451171875 Q 1.2412109375 0.15185546875 1.209716796875 0.1845703125 Q 1.17822265625 0.21728515625 1.16064453125 0.254638671875 Q 1.14306640625 0.2919921875 1.14306640625 0.33203125 Q 1.14306640625 0.3671875 1.1552734375 0.3935546875 Q 1.16748046875 0.419921875 1.187744140625 0.437744140625 Q 1.2080078125 0.45556640625 1.234375 0.46435546875 Q 1.2607421875 0.47314453125 1.28955078125 0.47314453125 Q 1.32373046875 0.47314453125 1.350341796875 0.4658203125 Q 1.376953125 0.45849609375 1.395263671875 0.44970703125 Q 1.41357421875 0.44091796875 1.42333984375 0.433349609375 Q 1.43310546875 0.42578125 1.43408203125 0.4248046875 Q 1.439453125 0.41943359375 1.44677734375 0.41943359375 Q 1.4541015625 0.41943359375 1.459716796875 0.425048828125 Q 1.46533203125 0.4306640625 1.46533203125 0.43798828125 Q 1.46533203125 0.4462890625 1.45947265625 0.451171875 Q 1.45849609375 0.4521484375 1.447021484375 0.46142578125 Q 1.435546875 0.470703125 1.413818359375 0.481689453125 Q 1.39208984375 0.49267578125 1.36083984375 0.50146484375 Q 1.32958984375 0.51025390625 1.28955078125 0.51025390625 Q 1.2529296875 0.51025390625 1.219482421875 0.498046875 Q 1.18603515625 0.48583984375 1.160888671875 0.462646484375 Q 1.1357421875 0.439453125 1.120849609375 0.406494140625 Q 1.10595703125 0.37353515625 1.10595703125 0.33203125 Q 1.10595703125 0.28662109375 1.124755859375 0.244384765625 Q 1.1435546875 0.2021484375 1.177490234375 0.165283203125 Q 1.21142578125 0.12841796875 1.2587890625 0.097900390625 Q 1.30615234375 0.0673828125 1.36376953125 0.045654296875 Q 1.42138671875 0.02392578125 1.4873046875 0.011962890625 Q 1.55322265625 0 1.6240234375 0 Q 1.70166015625 0 1.7666015625 0.017578125 Q 1.83154296875 0.03515625 1.878173828125 0.068359375 Q 1.9248046875 0.1015625 1.95068359375 0.149169921875 Q 1.9765625 0.19677734375 1.9765625 0.25732421875 M 1.6865234375 0.14111328125 Q 1.69384765625 0.14111328125 1.699462890625 0.146240234375 Q 1.705078125 0.1513671875 1.705078125 0.15966796875 Q 1.705078125 0.16455078125 1.702392578125 0.16845703125 Q 1.69970703125 0.17236328125 1.69580078125 0.17578125 Q 1.66845703125 0.197265625 1.652099609375 0.22216796875 Q 1.6357421875 0.2470703125 1.627197265625 0.275634765625 Q 1.61865234375 0.30419921875 1.615966796875 0.33642578125 Q 1.61328125 0.36865234375 1.61328125 0.40380859375 L 1.61328125 0.46533203125 Q 1.61328125 0.52587890625 1.6025390625 0.580322265625 Q 1.591796875 0.634765625 1.566162109375 0.67578125 Q 1.54052734375 0.716796875 1.49755859375 0.740966796875 Q 1.45458984375 0.76513671875 1.3896484375 0.76513671875 Q 1.3603515625 0.76513671875 1.332275390625 0.758056640625 Q 1.30419921875 0.7509765625 1.279296875 0.737548828125 Q 1.25439453125 0.72412109375 1.2333984375 0.70458984375 Q 1.21240234375 0.68505859375 1.197265625 0.66064453125 Q 1.1962890625 0.65869140625 1.1953125 0.656005859375 Q 1.1943359375 0.6533203125 1.1943359375 0.65087890625 Q 1.1943359375 0.64404296875 1.199462890625 0.638427734375 Q 1.20458984375 0.6328125 1.212890625 0.6328125 Q 1.2177734375 0.6328125 1.221923828125 0.635498046875 Q 1.22607421875 0.63818359375 1.22900390625 0.64208984375 Q 1.26025390625 0.685546875 1.2998046875 0.707275390625 Q 1.33935546875 0.72900390625 1.3896484375 0.72900390625 Q 1.447265625 0.72900390625 1.483642578125 0.707763671875 Q 1.52001953125 0.6865234375 1.540771484375 0.649658203125 Q 1.5615234375 0.61279296875 1.569091796875 0.5634765625 Q 1.57666015625 0.51416015625 1.57666015625 0.45849609375 L 1.57666015625 0.396484375 Q 1.57666015625 0.36376953125 1.57958984375 0.328857421875 Q 1.58251953125 0.2939453125 1.593017578125 0.260498046875 Q 1.603515625 0.22705078125 1.623291015625 0.197021484375 Q 1.64306640625 0.1669921875 1.6767578125 0.14404296875 Q 1.6787109375 0.14306640625 1.681640625 0.14208984375 Q 1.6845703125 0.14111328125 1.6865234375 0.14111328125" fill="#ffffff" fill-rule="nonzero"></path></g><g transform="matrix(1,0,0,1,0,0)"></g></g><defs><clipPath id="SvgjsClipPath1003"><path d=" M -1.1 -1.4421337468479827 h 4.1912109375 v 3.6235253061959654 h -4.1912109375 Z"></path></clipPath></defs></svg>